<svg width="18" height="18" viewBox="0 0 18 18" fill="none" xmlns="http://www.w3.org/2000/svg" shape-rendering="crispEdges">
  <path d="M16 9V15C16 15.5523 15.5523 16 15 16H1C0.447715 16 0 15.5523 0 15V1C0 0.447715 0.447715 0 1 0H7" transform="translate(1 1)" stroke="#42ACDB" stroke-linecap="round"/>
  <path d="M2 -0.5C1.72386 -0.5 1.5 -0.276142 1.5 0C1.5 0.276142 1.72386 0.5 2 0.5V-0.5ZM8 0H8.5V-0.5H8V0ZM7.5 6C7.5 6.27614 7.72386 6.5 8 6.5C8.27614 6.5 8.5 6.27614 8.5 6H7.5ZM-0.353553 7.64645C-0.548816 7.84171 -0.548816 8.15829 -0.353553 8.35355C-0.158291 8.54882 0.158291 8.54882 0.353553 8.35355L-0.353553 7.64645ZM2 0.5H8V-0.5H2V0.5ZM7.5 0V6H8.5V0H7.5ZM7.64645 -0.353553L-0.353553 7.64645L0.353553 8.35355L8.35355 0.353553L7.64645 -0.353553Z" transform="translate(9 1)" fill="#42ACDB"/>
</svg>
